<svg width="19" height="23" viewBox="0 0 19 23" fill="none" xmlns="http://www.w3.org/2000/svg">
<path d="M18.0904 7.72706C17.3055 2.17846 11.4782 -1.33959 6.17193 0.48555C1.38497 2.13185 -1.13556 7.40318 0.496391 12.3611C1.0249 13.9654 1.91838 15.3394 3.06304 16.5765C4.18317 17.7867 5.24181 19.0546 6.32728 20.2973C7.00982 21.0783 7.68909 21.8622 8.37621 22.6389C8.69803 23.0032 9.16897 23.0983 9.5575 22.8959C9.94603 22.6934 10.1789 22.2481 10.0415 21.8245C9.96173 21.5784 9.78643 21.35 9.61277 21.1501C7.75734 19.015 5.89754 16.8837 4.03338 14.7562C2.30168 12.7697 1.63581 10.4628 2.03841 7.86028C2.47861 5.01165 5.06717 2.29822 8.37392 1.94022C11.3471 1.61864 14.5001 3.38406 15.6853 6.25762C16.8392 9.05604 16.43 11.7396 14.6427 14.1482C13.8042 15.2783 12.7665 16.2598 11.786 17.345C11.6974 17.2357 11.6336 17.1524 11.5652 17.0729C10.0303 15.2843 8.49548 13.4955 6.96076 11.7065C6.49472 11.1624 6.52023 10.324 7.00786 9.80323C7.60897 9.15875 8.59959 9.17385 9.19186 9.85147C10.0294 10.81 10.8461 11.7875 11.6944 12.7359C11.8819 12.9411 12.1195 13.0938 12.3838 13.1789C12.7508 13.2907 13.1501 13.0692 13.3457 12.7418C13.555 12.3913 13.5174 11.9362 13.2224 11.591C12.7501 11.0384 12.2755 10.4877 11.7984 9.93908C12.0424 8.97083 12.2869 8.00258 12.532 7.03434C12.619 6.69077 12.5948 6.36854 12.41 6.06238C12.4063 6.0518 12.4041 6.04076 12.4034 6.02956L11.9587 5.51568C11.7546 5.46384 11.6839 5.49731 11.5839 5.69059L10.2695 8.23568C9.71873 7.76151 9.07086 7.48619 8.29871 7.435C6.94376 7.34542 5.68038 8.04634 5.08124 9.24604C4.45985 10.4881 4.63155 11.966 5.51457 12.9925C6.3832 14.0018 7.26066 15.0037 8.11981 16.0216C8.92107 16.9709 9.69551 17.9432 10.4978 18.8915C10.8013 19.2502 11.1607 19.5609 11.475 19.9114C11.662 20.1204 11.7997 20.126 11.9871 19.9157C12.3969 19.4563 12.8211 19.0077 13.241 18.5562C13.9798 17.7624 14.7245 16.9745 15.4577 16.1758C17.6607 13.7764 18.5457 10.9406 18.0904 7.72706Z" fill="#675DFF"/>
</svg>
